<?xml version="1.0" standalone="no"?>
<!DOCTYPE svg PUBLIC "-//W3C//DTD SVG 20010904//EN"
 "http://www.w3.org/TR/2001/REC-SVG-20010904/DTD/svg10.dtd">
<svg version="1.0" xmlns="http://www.w3.org/2000/svg"
 width="99.000000pt" height="120.000000pt" viewBox="0 0 99.000000 120.000000"
 preserveAspectRatio="xMidYMid meet">

<g transform="translate(0.000000,120.000000) scale(0.100000,-0.100000)"
fill="#000000" stroke="none">
<path d="M30 1030 l0 -150 223 -2 222 -3 -222 -195 -223 -195 0 -193 0 -194
68 60 c208 183 267 232 276 229 6 -2 82 -89 169 -193 87 -104 163 -188 168
-186 5 1 61 36 124 78 70 47 112 81 108 88 -4 6 -83 100 -176 209 -93 108
-167 201 -165 206 2 5 72 70 156 146 83 75 152 140 152 144 0 5 -72 74 -160
155 l-160 146 -280 0 -280 0 0 -150z"/>
</g>
</svg>
