solid OpenSCAD_Model
  facet normal -0.0238517 -0.999716 0
    outer loop
      vertex 2.351 30.514 -2.5
      vertex 4.782 30.456 -2.5
      vertex 4.782 30.456 2.5
    endloop
  endfacet
  facet normal -0.0238517 -0.999716 0
    outer loop
      vertex 2.351 30.514 2.5
      vertex 2.351 30.514 -2.5
      vertex 4.782 30.456 2.5
    endloop
  endfacet
  facet normal -0.0212503 -0.999774 0
    outer loop
      vertex 4.782 30.456 -2.5
      vertex 7.746 30.393 -2.5
      vertex 7.746 30.393 2.5
    endloop
  endfacet
  facet normal -0.0212503 -0.999774 0
    outer loop
      vertex 4.782 30.456 2.5
      vertex 4.782 30.456 -2.5
      vertex 7.746 30.393 2.5
    endloop
  endfacet
  facet normal 0 0 -1
    outer loop
      vertex 0 16.818 -2.5
      vertex 7.661 23.52 -2.5
      vertex 0 9.916 -2.5
    endloop
  endfacet
  facet normal 0 0 -1
    outer loop
      vertex 0 9.916 -2.5
      vertex 7.661 23.52 -2.5
      vertex 15.322 30.225 -2.5
    endloop
  endfacet
  facet normal 0 0 -1
    outer loop
      vertex 7.746 30.393 -2.5
      vertex 4.782 30.456 -2.5
      vertex 2.351 30.514 -2.5
    endloop
  endfacet
  facet normal 0 0 -1
    outer loop
      vertex 7.746 30.393 -2.5
      vertex 2.351 30.514 -2.5
      vertex 15.322 30.225 -2.5
    endloop
  endfacet
  facet normal 0 0 -1
    outer loop
      vertex 15.322 30.225 -2.5
      vertex 2.351 30.514 -2.5
      vertex 0.703 30.559 -2.5
    endloop
  endfacet
  facet normal 0 0 -1
    outer loop
      vertex 15.322 30.225 -2.5
      vertex 0.703 30.559 -2.5
      vertex 0.084 30.59 -2.5
    endloop
  endfacet
  facet normal 0 0 -1
    outer loop
      vertex 15.322 30.225 -2.5
      vertex 0.084 30.59 -2.5
      vertex 0.047 31.036 -2.5
    endloop
  endfacet
  facet normal 0 0 -1
    outer loop
      vertex 15.322 30.225 -2.5
      vertex 0.047 31.036 -2.5
      vertex 0.021 32.208 -2.5
    endloop
  endfacet
  facet normal 0 0 -1
    outer loop
      vertex 15.322 30.225 -2.5
      vertex 0.021 32.208 -2.5
      vertex 0.004 33.922 -2.5
    endloop
  endfacet
  facet normal 0 0 -1
    outer loop
      vertex 15.322 30.225 -2.5
      vertex 0.004 33.922 -2.5
      vertex 0 35.999 -2.5
    endloop
  endfacet
  facet normal 0 0 -1
    outer loop
      vertex 15.322 30.225 -2.5
      vertex 0 35.999 -2.5
      vertex 0 41.349 -2.5
    endloop
  endfacet
  facet normal 0 0 -1
    outer loop
      vertex 15.322 30.225 -2.5
      vertex 0 41.349 -2.5
      vertex 20.082 41.349 -2.5
    endloop
  endfacet
  facet normal 0 0 -1
    outer loop
      vertex 15.322 30.225 -2.5
      vertex 20.082 41.349 -2.5
      vertex 22.786 38.899 -2.5
    endloop
  endfacet
  facet normal 0 0 -1
    outer loop
      vertex 15.322 30.225 -2.5
      vertex 22.786 38.899 -2.5
      vertex 0 9.916 -2.5
    endloop
  endfacet
  facet normal 0 0 -1
    outer loop
      vertex 0 9.916 -2.5
      vertex 22.786 38.899 -2.5
      vertex 24.07 37.703 -2.5
    endloop
  endfacet
  facet normal 0 0 -1
    outer loop
      vertex 0 9.916 -2.5
      vertex 24.07 37.703 -2.5
      vertex 25.563 36.298 -2.5
    endloop
  endfacet
  facet normal 0 0 -1
    outer loop
      vertex 0 9.916 -2.5
      vertex 25.563 36.298 -2.5
      vertex 27.083 34.856 -2.5
    endloop
  endfacet
  facet normal 0 0 -1
    outer loop
      vertex 0 9.916 -2.5
      vertex 27.083 34.856 -2.5
      vertex 28.447 33.547 -2.5
    endloop
  endfacet
  facet normal 0 0 -1
    outer loop
      vertex 0 9.916 -2.5
      vertex 28.447 33.547 -2.5
      vertex 31.404 30.646 -2.5
    endloop
  endfacet
  facet normal 0 0 -1
    outer loop
      vertex 0 9.916 -2.5
      vertex 31.404 30.646 -2.5
      vertex 29.011 28.309 -2.5
    endloop
  endfacet
  facet normal 0 0 -1
    outer loop
      vertex 0 9.916 -2.5
      vertex 29.011 28.309 -2.5
      vertex 27.835 27.191 -2.5
    endloop
  endfacet
  facet normal 0 0 -1
    outer loop
      vertex 0 9.916 -2.5
      vertex 27.835 27.191 -2.5
      vertex 26.414 25.848 -2.5
    endloop
  endfacet
  facet normal 0 0 -1
    outer loop
      vertex 0 9.916 -2.5
      vertex 26.414 25.848 -2.5
      vertex 24.926 24.448 -2.5
    endloop
  endfacet
  facet normal 0 0 -1
    outer loop
      vertex 0 9.916 -2.5
      vertex 24.926 24.448 -2.5
      vertex 23.547 23.155 -2.5
    endloop
  endfacet
  facet normal 0 0 -1
    outer loop
      vertex 0 9.916 -2.5
      vertex 23.547 23.155 -2.5
      vertex 20.476 20.339 -2.5
    endloop
  endfacet
  facet normal 0 0 -1
    outer loop
      vertex 0 9.916 -2.5
      vertex 20.476 20.339 -2.5
      vertex 22.279 18.113 -2.5
    endloop
  endfacet
  facet normal 0 0 -1
    outer loop
      vertex 22.279 18.113 -2.5
      vertex 23.318 16.853 -2.5
      vertex 0 9.916 -2.5
    endloop
  endfacet
  facet normal 0 0 -1
    outer loop
      vertex 12.861 12.455 -2.5
      vertex 26.496 13.044 -2.5
      vertex 14.096 11.037 -2.5
    endloop
  endfacet
  facet normal 0 0 -1
    outer loop
      vertex 15.882 8.977 -2.5
      vertex 30.562 8.166 -2.5
      vertex 31.175 7.4 -2.5
    endloop
  endfacet
  facet normal 0 0 -1
    outer loop
      vertex 14.096 11.037 -2.5
      vertex 29.082 9.967 -2.5
      vertex 29.859 9.029 -2.5
    endloop
  endfacet
  facet normal 0 0 -1
    outer loop
      vertex 14.096 11.037 -2.5
      vertex 29.859 9.029 -2.5
      vertex 30.562 8.166 -2.5
    endloop
  endfacet
  facet normal 0 0 -1
    outer loop
      vertex 14.096 11.037 -2.5
      vertex 30.562 8.166 -2.5
      vertex 15.882 8.977 -2.5
    endloop
  endfacet
  facet normal 0 0 -1
    outer loop
      vertex 18.026 6.481 -2.5
      vertex 30.843 4.1 -2.5
      vertex 30.061 3.535 -2.5
    endloop
  endfacet
  facet normal 0 0 -1
    outer loop
      vertex 15.882 8.977 -2.5
      vertex 31.681 6.752 -2.5
      vertex 32.064 6.243 -2.5
    endloop
  endfacet
  facet normal 0 0 -1
    outer loop
      vertex 15.882 8.977 -2.5
      vertex 32.064 6.243 -2.5
      vertex 32.305 5.891 -2.5
    endloop
  endfacet
  facet normal 0 0 -1
    outer loop
      vertex 20.271 3.921 -2.5
      vertex 27.883 2.059 -2.5
      vertex 26.552 1.207 -2.5
    endloop
  endfacet
  facet normal 0 0 -1
    outer loop
      vertex 22.13 1.88 -2.5
      vertex 26.552 1.207 -2.5
      vertex 25.411 0.546 -2.5
    endloop
  endfacet
  facet normal 0 0 -1
    outer loop
      vertex 23.452 0.521 -2.5
      vertex 24.555 0.127 -2.5
      vertex 24.081 0.003 -2.5
    endloop
  endfacet
  facet normal 0 0 -1
    outer loop
      vertex 18.026 6.481 -2.5
      vertex 27.883 2.059 -2.5
      vertex 20.271 3.921 -2.5
    endloop
  endfacet
  facet normal 0 0 -1
    outer loop
      vertex 18.026 6.481 -2.5
      vertex 29.079 2.859 -2.5
      vertex 27.883 2.059 -2.5
    endloop
  endfacet
  facet normal 0 0 -1
    outer loop
      vertex 20.271 3.921 -2.5
      vertex 26.552 1.207 -2.5
      vertex 22.13 1.88 -2.5
    endloop
  endfacet
  facet normal 0 0 -1
    outer loop
      vertex 15.882 8.977 -2.5
      vertex 32.305 5.891 -2.5
      vertex 32.391 5.72 -2.5
    endloop
  endfacet
  facet normal 0 0 -1
    outer loop
      vertex 18.026 6.481 -2.5
      vertex 30.061 3.535 -2.5
      vertex 29.079 2.859 -2.5
    endloop
  endfacet
  facet normal 0 0 -1
    outer loop
      vertex 15.882 8.977 -2.5
      vertex 31.175 7.4 -2.5
      vertex 31.681 6.752 -2.5
    endloop
  endfacet
  facet normal 0 0 -1
    outer loop
      vertex 14.096 11.037 -2.5
      vertex 28.25 10.96 -2.5
      vertex 29.082 9.967 -2.5
    endloop
  endfacet
  facet normal 0 0 -1
    outer loop
      vertex 26.496 13.044 -2.5
      vertex 28.25 10.96 -2.5
      vertex 14.096 11.037 -2.5
    endloop
  endfacet
  facet normal 0 0 -1
    outer loop
      vertex 24.788 15.087 -2.5
      vertex 26.496 13.044 -2.5
      vertex 12.861 12.455 -2.5
    endloop
  endfacet
  facet normal 0 0 -1
    outer loop
      vertex 23.318 16.853 -2.5
      vertex 24.788 15.087 -2.5
      vertex 12.365 13.016 -2.5
    endloop
  endfacet
  facet normal 0 0 -1
    outer loop
      vertex 23.318 16.853 -2.5
      vertex 12.365 13.016 -2.5
      vertex 0 9.916 -2.5
    endloop
  endfacet
  facet normal 0 0 -1
    outer loop
      vertex 9.85 11.199 -2.5
      vertex 0 9.916 -2.5
      vertex 11.646 12.604 -2.5
    endloop
  endfacet
  facet normal 0 0 -1
    outer loop
      vertex 12.365 13.016 -2.5
      vertex 11.646 12.604 -2.5
      vertex 0 9.916 -2.5
    endloop
  endfacet
  facet normal 0 0 -1
    outer loop
      vertex 12.365 13.016 -2.5
      vertex 24.788 15.087 -2.5
      vertex 12.861 12.455 -2.5
    endloop
  endfacet
  facet normal 0 0 -1
    outer loop
      vertex 7.136 8.928 -2.5
      vertex 0 9.916 -2.5
      vertex 9.85 11.199 -2.5
    endloop
  endfacet
  facet normal 0 0 -1
    outer loop
      vertex 0 9.916 -2.5
      vertex 3.661 5.917 -2.5
      vertex 2.391 4.804 -2.5
    endloop
  endfacet
  facet normal 0 0 -1
    outer loop
      vertex 0 9.916 -2.5
      vertex 2.391 4.804 -2.5
      vertex 1.319 3.89 -2.5
    endloop
  endfacet
  facet normal 0 0 -1
    outer loop
      vertex 0 9.916 -2.5
      vertex 1.319 3.89 -2.5
      vertex 0.559 3.271 -2.5
    endloop
  endfacet
  facet normal 0 0 -1
    outer loop
      vertex 0 9.916 -2.5
      vertex 0.559 3.271 -2.5
      vertex 0.226 3.044 -2.5
    endloop
  endfacet
  facet normal 0 0 -1
    outer loop
      vertex 0 9.916 -2.5
      vertex 0.226 3.044 -2.5
      vertex 0.13 3.588 -2.5
    endloop
  endfacet
  facet normal 0 0 -1
    outer loop
      vertex 0 9.916 -2.5
      vertex 0.13 3.588 -2.5
      vertex 0.059 5.066 -2.5
    endloop
  endfacet
  facet normal 0 0 -1
    outer loop
      vertex 0 9.916 -2.5
      vertex 0.059 5.066 -2.5
      vertex 0.015 7.251 -2.5
    endloop
  endfacet
  facet normal 0 0 -1
    outer loop
      vertex 22.13 1.88 -2.5
      vertex 25.411 0.546 -2.5
      vertex 24.555 0.127 -2.5
    endloop
  endfacet
  facet normal 0 0 -1
    outer loop
      vertex 22.13 1.88 -2.5
      vertex 24.555 0.127 -2.5
      vertex 23.452 0.521 -2.5
    endloop
  endfacet
  facet normal 0 0 -1
    outer loop
      vertex 15.882 8.977 -2.5
      vertex 32.391 5.72 -2.5
      vertex 32.34 5.512 -2.5
    endloop
  endfacet
  facet normal 0 0 -1
    outer loop
      vertex 15.882 8.977 -2.5
      vertex 32.34 5.512 -2.5
      vertex 32.177 5.26 -2.5
    endloop
  endfacet
  facet normal 0 0 -1
    outer loop
      vertex 15.882 8.977 -2.5
      vertex 32.177 5.26 -2.5
      vertex 31.885 4.949 -2.5
    endloop
  endfacet
  facet normal 0 0 -1
    outer loop
      vertex 15.882 8.977 -2.5
      vertex 31.885 4.949 -2.5
      vertex 31.447 4.565 -2.5
    endloop
  endfacet
  facet normal 0 0 -1
    outer loop
      vertex 15.882 8.977 -2.5
      vertex 31.447 4.565 -2.5
      vertex 30.843 4.1 -2.5
    endloop
  endfacet
  facet normal 0 0 -1
    outer loop
      vertex 15.882 8.977 -2.5
      vertex 30.843 4.1 -2.5
      vertex 18.026 6.481 -2.5
    endloop
  endfacet
  facet normal 0 0 -1
    outer loop
      vertex 3.661 5.917 -2.5
      vertex 0 9.916 -2.5
      vertex 7.136 8.928 -2.5
    endloop
  endfacet
  facet normal -0.0272957 -0.999627 0
    outer loop
      vertex 0.703 30.559 -2.5
      vertex 2.351 30.514 -2.5
      vertex 2.351 30.514 2.5
    endloop
  endfacet
  facet normal -0.0272957 -0.999627 0
    outer loop
      vertex 0.703 30.559 2.5
      vertex 0.703 30.559 -2.5
      vertex 2.351 30.514 2.5
    endloop
  endfacet
  facet normal 0 0 1
    outer loop
      vertex 0 9.916 2.5
      vertex 0.015 7.251 2.5
      vertex 0.059 5.066 2.5
    endloop
  endfacet
  facet normal 0 0 1
    outer loop
      vertex 0.226 3.044 2.5
      vertex 0 9.916 2.5
      vertex 0.13 3.588 2.5
    endloop
  endfacet
  facet normal 0 0 1
    outer loop
      vertex 0.13 3.588 2.5
      vertex 0 9.916 2.5
      vertex 0.059 5.066 2.5
    endloop
  endfacet
  facet normal 0 0 1
    outer loop
      vertex 0.559 3.271 2.5
      vertex 0 9.916 2.5
      vertex 0.226 3.044 2.5
    endloop
  endfacet
  facet normal 0 0 1
    outer loop
      vertex 1.319 3.89 2.5
      vertex 0 9.916 2.5
      vertex 0.559 3.271 2.5
    endloop
  endfacet
  facet normal 0 0 1
    outer loop
      vertex 2.391 4.804 2.5
      vertex 0 9.916 2.5
      vertex 1.319 3.89 2.5
    endloop
  endfacet
  facet normal 0 0 1
    outer loop
      vertex 3.661 5.917 2.5
      vertex 0 9.916 2.5
      vertex 2.391 4.804 2.5
    endloop
  endfacet
  facet normal 0 0 1
    outer loop
      vertex 7.136 8.928 2.5
      vertex 0 9.916 2.5
      vertex 3.661 5.917 2.5
    endloop
  endfacet
  facet normal 0 0 1
    outer loop
      vertex 9.85 11.199 2.5
      vertex 0 9.916 2.5
      vertex 7.136 8.928 2.5
    endloop
  endfacet
  facet normal 0 0 1
    outer loop
      vertex 11.646 12.604 2.5
      vertex 0 9.916 2.5
      vertex 9.85 11.199 2.5
    endloop
  endfacet
  facet normal 0 0 1
    outer loop
      vertex 12.365 13.016 2.5
      vertex 0 9.916 2.5
      vertex 11.646 12.604 2.5
    endloop
  endfacet
  facet normal 0 0 1
    outer loop
      vertex 23.318 16.853 2.5
      vertex 0 9.916 2.5
      vertex 12.365 13.016 2.5
    endloop
  endfacet
  facet normal 0 0 1
    outer loop
      vertex 23.452 0.521 2.5
      vertex 12.365 13.016 2.5
      vertex 12.861 12.455 2.5
    endloop
  endfacet
  facet normal 0 0 1
    outer loop
      vertex 22.13 1.88 2.5
      vertex 12.861 12.455 2.5
      vertex 14.096 11.037 2.5
    endloop
  endfacet
  facet normal 0 0 1
    outer loop
      vertex 20.271 3.921 2.5
      vertex 14.096 11.037 2.5
      vertex 15.882 8.977 2.5
    endloop
  endfacet
  facet normal 0 0 1
    outer loop
      vertex 20.271 3.921 2.5
      vertex 15.882 8.977 2.5
      vertex 18.026 6.481 2.5
    endloop
  endfacet
  facet normal 0 0 1
    outer loop
      vertex 22.13 1.88 2.5
      vertex 14.096 11.037 2.5
      vertex 20.271 3.921 2.5
    endloop
  endfacet
  facet normal 0 0 1
    outer loop
      vertex 23.452 0.521 2.5
      vertex 12.861 12.455 2.5
      vertex 22.13 1.88 2.5
    endloop
  endfacet
  facet normal 0 0 1
    outer loop
      vertex 24.081 0.003 2.5
      vertex 12.365 13.016 2.5
      vertex 23.452 0.521 2.5
    endloop
  endfacet
  facet normal 0 0 1
    outer loop
      vertex 24.555 0.127 2.5
      vertex 12.365 13.016 2.5
      vertex 24.081 0.003 2.5
    endloop
  endfacet
  facet normal 0 0 1
    outer loop
      vertex 25.411 0.546 2.5
      vertex 12.365 13.016 2.5
      vertex 24.555 0.127 2.5
    endloop
  endfacet
  facet normal 0 0 1
    outer loop
      vertex 26.552 1.207 2.5
      vertex 12.365 13.016 2.5
      vertex 25.411 0.546 2.5
    endloop
  endfacet
  facet normal 0 0 1
    outer loop
      vertex 27.883 2.059 2.5
      vertex 12.365 13.016 2.5
      vertex 26.552 1.207 2.5
    endloop
  endfacet
  facet normal 0 0 1
    outer loop
      vertex 29.079 2.859 2.5
      vertex 12.365 13.016 2.5
      vertex 27.883 2.059 2.5
    endloop
  endfacet
  facet normal 0 0 1
    outer loop
      vertex 30.061 3.535 2.5
      vertex 12.365 13.016 2.5
      vertex 29.079 2.859 2.5
    endloop
  endfacet
  facet normal 0 0 1
    outer loop
      vertex 30.843 4.1 2.5
      vertex 12.365 13.016 2.5
      vertex 30.061 3.535 2.5
    endloop
  endfacet
  facet normal 0 0 1
    outer loop
      vertex 31.447 4.565 2.5
      vertex 12.365 13.016 2.5
      vertex 30.843 4.1 2.5
    endloop
  endfacet
  facet normal 0 0 1
    outer loop
      vertex 31.885 4.949 2.5
      vertex 12.365 13.016 2.5
      vertex 31.447 4.565 2.5
    endloop
  endfacet
  facet normal 0 0 1
    outer loop
      vertex 32.177 5.26 2.5
      vertex 12.365 13.016 2.5
      vertex 31.885 4.949 2.5
    endloop
  endfacet
  facet normal 0 0 1
    outer loop
      vertex 32.34 5.512 2.5
      vertex 12.365 13.016 2.5
      vertex 32.177 5.26 2.5
    endloop
  endfacet
  facet normal 0 0 1
    outer loop
      vertex 32.391 5.72 2.5
      vertex 12.365 13.016 2.5
      vertex 32.34 5.512 2.5
    endloop
  endfacet
  facet normal 0 0 1
    outer loop
      vertex 32.305 5.891 2.5
      vertex 12.365 13.016 2.5
      vertex 32.391 5.72 2.5
    endloop
  endfacet
  facet normal 0 0 1
    outer loop
      vertex 32.064 6.243 2.5
      vertex 12.365 13.016 2.5
      vertex 32.305 5.891 2.5
    endloop
  endfacet
  facet normal 0 0 1
    outer loop
      vertex 31.681 6.752 2.5
      vertex 12.365 13.016 2.5
      vertex 32.064 6.243 2.5
    endloop
  endfacet
  facet normal 0 0 1
    outer loop
      vertex 31.175 7.4 2.5
      vertex 12.365 13.016 2.5
      vertex 31.681 6.752 2.5
    endloop
  endfacet
  facet normal 0 0 1
    outer loop
      vertex 30.562 8.166 2.5
      vertex 12.365 13.016 2.5
      vertex 31.175 7.4 2.5
    endloop
  endfacet
  facet normal 0 0 1
    outer loop
      vertex 29.859 9.029 2.5
      vertex 12.365 13.016 2.5
      vertex 30.562 8.166 2.5
    endloop
  endfacet
  facet normal 0 0 1
    outer loop
      vertex 29.082 9.967 2.5
      vertex 12.365 13.016 2.5
      vertex 29.859 9.029 2.5
    endloop
  endfacet
  facet normal 0 0 1
    outer loop
      vertex 28.25 10.96 2.5
      vertex 12.365 13.016 2.5
      vertex 29.082 9.967 2.5
    endloop
  endfacet
  facet normal 0 0 1
    outer loop
      vertex 26.496 13.044 2.5
      vertex 12.365 13.016 2.5
      vertex 28.25 10.96 2.5
    endloop
  endfacet
  facet normal 0 0 1
    outer loop
      vertex 24.788 15.087 2.5
      vertex 12.365 13.016 2.5
      vertex 26.496 13.044 2.5
    endloop
  endfacet
  facet normal 0 0 1
    outer loop
      vertex 23.318 16.853 2.5
      vertex 12.365 13.016 2.5
      vertex 24.788 15.087 2.5
    endloop
  endfacet
  facet normal 0 0 1
    outer loop
      vertex 22.279 18.113 2.5
      vertex 0 9.916 2.5
      vertex 23.318 16.853 2.5
    endloop
  endfacet
  facet normal 0 0 1
    outer loop
      vertex 20.476 20.339 2.5
      vertex 0 9.916 2.5
      vertex 22.279 18.113 2.5
    endloop
  endfacet
  facet normal 0 0 1
    outer loop
      vertex 23.547 23.155 2.5
      vertex 0 9.916 2.5
      vertex 20.476 20.339 2.5
    endloop
  endfacet
  facet normal 0 0 1
    outer loop
      vertex 24.926 24.448 2.5
      vertex 0 9.916 2.5
      vertex 23.547 23.155 2.5
    endloop
  endfacet
  facet normal 0 0 1
    outer loop
      vertex 26.414 25.848 2.5
      vertex 0 9.916 2.5
      vertex 24.926 24.448 2.5
    endloop
  endfacet
  facet normal 0 0 1
    outer loop
      vertex 27.835 27.191 2.5
      vertex 0 9.916 2.5
      vertex 26.414 25.848 2.5
    endloop
  endfacet
  facet normal 0 0 1
    outer loop
      vertex 29.011 28.309 2.5
      vertex 0 9.916 2.5
      vertex 27.835 27.191 2.5
    endloop
  endfacet
  facet normal 0 0 1
    outer loop
      vertex 31.404 30.646 2.5
      vertex 0 9.916 2.5
      vertex 29.011 28.309 2.5
    endloop
  endfacet
  facet normal 0 0 1
    outer loop
      vertex 28.447 33.547 2.5
      vertex 0 9.916 2.5
      vertex 31.404 30.646 2.5
    endloop
  endfacet
  facet normal 0 0 1
    outer loop
      vertex 27.083 34.856 2.5
      vertex 0 9.916 2.5
      vertex 28.447 33.547 2.5
    endloop
  endfacet
  facet normal 0 0 1
    outer loop
      vertex 25.563 36.298 2.5
      vertex 0 9.916 2.5
      vertex 27.083 34.856 2.5
    endloop
  endfacet
  facet normal 0 0 1
    outer loop
      vertex 24.07 37.703 2.5
      vertex 0 9.916 2.5
      vertex 25.563 36.298 2.5
    endloop
  endfacet
  facet normal 0 0 1
    outer loop
      vertex 22.786 38.899 2.5
      vertex 0 9.916 2.5
      vertex 24.07 37.703 2.5
    endloop
  endfacet
  facet normal 0 0 1
    outer loop
      vertex 15.322 30.225 2.5
      vertex 0 9.916 2.5
      vertex 22.786 38.899 2.5
    endloop
  endfacet
  facet normal 0 0 1
    outer loop
      vertex 0 41.349 2.5
      vertex 0 35.999 2.5
      vertex 20.082 41.349 2.5
    endloop
  endfacet
  facet normal 0 0 1
    outer loop
      vertex 0 35.999 2.5
      vertex 0.004 33.922 2.5
      vertex 20.082 41.349 2.5
    endloop
  endfacet
  facet normal 0 0 1
    outer loop
      vertex 0.004 33.922 2.5
      vertex 0.021 32.208 2.5
      vertex 20.082 41.349 2.5
    endloop
  endfacet
  facet normal 0 0 1
    outer loop
      vertex 0.021 32.208 2.5
      vertex 0.047 31.036 2.5
      vertex 20.082 41.349 2.5
    endloop
  endfacet
  facet normal 0 0 1
    outer loop
      vertex 0.047 31.036 2.5
      vertex 0.084 30.59 2.5
      vertex 20.082 41.349 2.5
    endloop
  endfacet
  facet normal 0 0 1
    outer loop
      vertex 0.084 30.59 2.5
      vertex 0.703 30.559 2.5
      vertex 20.082 41.349 2.5
    endloop
  endfacet
  facet normal 0 0 1
    outer loop
      vertex 0.703 30.559 2.5
      vertex 2.351 30.514 2.5
      vertex 20.082 41.349 2.5
    endloop
  endfacet
  facet normal 0 0 1
    outer loop
      vertex 2.351 30.514 2.5
      vertex 4.782 30.456 2.5
      vertex 20.082 41.349 2.5
    endloop
  endfacet
  facet normal 0 0 1
    outer loop
      vertex 4.782 30.456 2.5
      vertex 7.746 30.393 2.5
      vertex 20.082 41.349 2.5
    endloop
  endfacet
  facet normal 0 0 1
    outer loop
      vertex 20.082 41.349 2.5
      vertex 15.322 30.225 2.5
      vertex 22.786 38.899 2.5
    endloop
  endfacet
  facet normal 0 0 1
    outer loop
      vertex 15.322 30.225 2.5
      vertex 7.661 23.52 2.5
      vertex 0 9.916 2.5
    endloop
  endfacet
  facet normal 0 0 1
    outer loop
      vertex 7.746 30.393 2.5
      vertex 15.322 30.225 2.5
      vertex 20.082 41.349 2.5
    endloop
  endfacet
  facet normal 0 0 1
    outer loop
      vertex 7.661 23.52 2.5
      vertex 0 16.818 2.5
      vertex 0 9.916 2.5
    endloop
  endfacet
  facet normal -0.0221698 -0.999754 0
    outer loop
      vertex 7.746 30.393 -2.5
      vertex 15.322 30.225 -2.5
      vertex 15.322 30.225 2.5
    endloop
  endfacet
  facet normal -0.0221698 -0.999754 0
    outer loop
      vertex 7.746 30.393 2.5
      vertex 7.746 30.393 -2.5
      vertex 15.322 30.225 2.5
    endloop
  endfacet
  facet normal -0.999984 -0.00562843 0
    outer loop
      vertex 0.015 7.251 -2.5
      vertex 0.015 7.251 2.5
      vertex 0 9.916 -2.5
    endloop
  endfacet
  facet normal -0.999984 -0.00562843 0
    outer loop
      vertex 0 9.916 -2.5
      vertex 0.015 7.251 2.5
      vertex 0 9.916 2.5
    endloop
  endfacet
  facet normal -1 0 0
    outer loop
      vertex 0 9.916 2.5
      vertex 0 16.818 2.5
      vertex 0 9.916 -2.5
    endloop
  endfacet
  facet normal -1 0 0
    outer loop
      vertex 0 9.916 -2.5
      vertex 0 16.818 2.5
      vertex 0 16.818 -2.5
    endloop
  endfacet
  facet normal -0.999797 -0.0201332 0
    outer loop
      vertex 0.059 5.066 -2.5
      vertex 0.059 5.066 2.5
      vertex 0.015 7.251 -2.5
    endloop
  endfacet
  facet normal -0.999797 -0.0201332 0
    outer loop
      vertex 0.015 7.251 -2.5
      vertex 0.059 5.066 2.5
      vertex 0.015 7.251 2.5
    endloop
  endfacet
  facet normal -0.998848 -0.0479826 0
    outer loop
      vertex 0.13 3.588 -2.5
      vertex 0.13 3.588 2.5
      vertex 0.059 5.066 -2.5
    endloop
  endfacet
  facet normal -0.998848 -0.0479826 0
    outer loop
      vertex 0.059 5.066 -2.5
      vertex 0.13 3.588 2.5
      vertex 0.059 5.066 2.5
    endloop
  endfacet
  facet normal -0.984784 -0.173785 0
    outer loop
      vertex 0.226 3.044 -2.5
      vertex 0.226 3.044 2.5
      vertex 0.13 3.588 -2.5
    endloop
  endfacet
  facet normal -0.984784 -0.173785 0
    outer loop
      vertex 0.13 3.588 -2.5
      vertex 0.226 3.044 2.5
      vertex 0.13 3.588 2.5
    endloop
  endfacet
  facet normal 0.56326 -0.82628 0
    outer loop
      vertex 0.226 3.044 -2.5
      vertex 0.559 3.271 -2.5
      vertex 0.559 3.271 2.5
    endloop
  endfacet
  facet normal 0.56326 -0.82628 0
    outer loop
      vertex 0.226 3.044 2.5
      vertex 0.226 3.044 -2.5
      vertex 0.559 3.271 2.5
    endloop
  endfacet
  facet normal 0.631514 -0.775364 0
    outer loop
      vertex 0.559 3.271 -2.5
      vertex 1.319 3.89 -2.5
      vertex 1.319 3.89 2.5
    endloop
  endfacet
  facet normal 0.631514 -0.775364 0
    outer loop
      vertex 0.559 3.271 2.5
      vertex 0.559 3.271 -2.5
      vertex 1.319 3.89 2.5
    endloop
  endfacet
  facet normal 0.648802 -0.760958 0
    outer loop
      vertex 1.319 3.89 -2.5
      vertex 2.391 4.804 -2.5
      vertex 2.391 4.804 2.5
    endloop
  endfacet
  facet normal 0.648802 -0.760958 0
    outer loop
      vertex 1.319 3.89 2.5
      vertex 1.319 3.89 -2.5
      vertex 2.391 4.804 2.5
    endloop
  endfacet
  facet normal 0.659091 -0.752063 0
    outer loop
      vertex 2.391 4.804 -2.5
      vertex 3.661 5.917 -2.5
      vertex 3.661 5.917 2.5
    endloop
  endfacet
  facet normal 0.659091 -0.752063 0
    outer loop
      vertex 2.391 4.804 2.5
      vertex 2.391 4.804 -2.5
      vertex 3.661 5.917 2.5
    endloop
  endfacet
  facet normal 0.654848 -0.755761 0
    outer loop
      vertex 3.661 5.917 -2.5
      vertex 7.136 8.928 -2.5
      vertex 7.136 8.928 2.5
    endloop
  endfacet
  facet normal 0.654848 -0.755761 0
    outer loop
      vertex 3.661 5.917 2.5
      vertex 3.661 5.917 -2.5
      vertex 7.136 8.928 2.5
    endloop
  endfacet
  facet normal 0.64174 -0.766923 0
    outer loop
      vertex 7.136 8.928 -2.5
      vertex 9.85 11.199 -2.5
      vertex 9.85 11.199 2.5
    endloop
  endfacet
  facet normal 0.64174 -0.766923 0
    outer loop
      vertex 7.136 8.928 2.5
      vertex 7.136 8.928 -2.5
      vertex 9.85 11.199 2.5
    endloop
  endfacet
  facet normal 0.616155 -0.787625 0
    outer loop
      vertex 9.85 11.199 -2.5
      vertex 11.646 12.604 -2.5
      vertex 11.646 12.604 2.5
    endloop
  endfacet
  facet normal 0.616155 -0.787625 0
    outer loop
      vertex 9.85 11.199 2.5
      vertex 9.85 11.199 -2.5
      vertex 11.646 12.604 2.5
    endloop
  endfacet
  facet normal 0.497178 -0.867648 0
    outer loop
      vertex 11.646 12.604 -2.5
      vertex 12.365 13.016 -2.5
      vertex 12.365 13.016 2.5
    endloop
  endfacet
  facet normal 0.497178 -0.867648 0
    outer loop
      vertex 11.646 12.604 2.5
      vertex 11.646 12.604 -2.5
      vertex 12.365 13.016 2.5
    endloop
  endfacet
  facet normal -0.749175 -0.662372 0
    outer loop
      vertex 12.861 12.455 -2.5
      vertex 12.861 12.455 2.5
      vertex 12.365 13.016 -2.5
    endloop
  endfacet
  facet normal -0.749175 -0.662372 0
    outer loop
      vertex 12.365 13.016 -2.5
      vertex 12.861 12.455 2.5
      vertex 12.365 13.016 2.5
    endloop
  endfacet
  facet normal -0.75409 -0.656771 0
    outer loop
      vertex 14.096 11.037 -2.5
      vertex 14.096 11.037 2.5
      vertex 12.861 12.455 -2.5
    endloop
  endfacet
  facet normal -0.75409 -0.656771 0
    outer loop
      vertex 12.861 12.455 -2.5
      vertex 14.096 11.037 2.5
      vertex 12.861 12.455 2.5
    endloop
  endfacet
  facet normal -0.755568 -0.65507 0
    outer loop
      vertex 15.882 8.977 -2.5
      vertex 15.882 8.977 2.5
      vertex 14.096 11.037 -2.5
    endloop
  endfacet
  facet normal -0.755568 -0.65507 0
    outer loop
      vertex 14.096 11.037 -2.5
      vertex 15.882 8.977 2.5
      vertex 14.096 11.037 2.5
    endloop
  endfacet
  facet normal -0.75857 -0.651592 0
    outer loop
      vertex 18.026 6.481 -2.5
      vertex 18.026 6.481 2.5
      vertex 15.882 8.977 -2.5
    endloop
  endfacet
  facet normal -0.75857 -0.651592 0
    outer loop
      vertex 15.882 8.977 -2.5
      vertex 18.026 6.481 2.5
      vertex 15.882 8.977 2.5
    endloop
  endfacet
  facet normal -0.751849 -0.659336 0
    outer loop
      vertex 20.271 3.921 -2.5
      vertex 20.271 3.921 2.5
      vertex 18.026 6.481 -2.5
    endloop
  endfacet
  facet normal -0.751849 -0.659336 0
    outer loop
      vertex 18.026 6.481 -2.5
      vertex 20.271 3.921 2.5
      vertex 18.026 6.481 2.5
    endloop
  endfacet
  facet normal -0.739301 -0.673376 0
    outer loop
      vertex 22.13 1.88 -2.5
      vertex 22.13 1.88 2.5
      vertex 20.271 3.921 -2.5
    endloop
  endfacet
  facet normal -0.739301 -0.673376 0
    outer loop
      vertex 20.271 3.921 -2.5
      vertex 22.13 1.88 2.5
      vertex 20.271 3.921 2.5
    endloop
  endfacet
  facet normal -0.716797 -0.697282 0
    outer loop
      vertex 23.452 0.521 -2.5
      vertex 23.452 0.521 2.5
      vertex 22.13 1.88 -2.5
    endloop
  endfacet
  facet normal -0.716797 -0.697282 0
    outer loop
      vertex 22.13 1.88 -2.5
      vertex 23.452 0.521 2.5
      vertex 22.13 1.88 2.5
    endloop
  endfacet
  facet normal -0.635707 -0.77193 0
    outer loop
      vertex 23.452 0.521 -2.5
      vertex 24.081 0.003 -2.5
      vertex 24.081 0.003 2.5
    endloop
  endfacet
  facet normal -0.635707 -0.77193 0
    outer loop
      vertex 23.452 0.521 2.5
      vertex 23.452 0.521 -2.5
      vertex 24.081 0.003 2.5
    endloop
  endfacet
  facet normal 0.253087 -0.967444 0
    outer loop
      vertex 24.081 0.003 -2.5
      vertex 24.555 0.127 -2.5
      vertex 24.555 0.127 2.5
    endloop
  endfacet
  facet normal 0.253087 -0.967444 0
    outer loop
      vertex 24.081 0.003 2.5
      vertex 24.081 0.003 -2.5
      vertex 24.555 0.127 2.5
    endloop
  endfacet
  facet normal 0.439643 -0.898173 0
    outer loop
      vertex 24.555 0.127 -2.5
      vertex 25.411 0.546 -2.5
      vertex 25.411 0.546 2.5
    endloop
  endfacet
  facet normal 0.439643 -0.898173 0
    outer loop
      vertex 24.555 0.127 2.5
      vertex 24.555 0.127 -2.5
      vertex 25.411 0.546 2.5
    endloop
  endfacet
  facet normal 0.501275 -0.865288 0
    outer loop
      vertex 25.411 0.546 -2.5
      vertex 26.552 1.207 -2.5
      vertex 26.552 1.207 2.5
    endloop
  endfacet
  facet normal 0.501275 -0.865288 0
    outer loop
      vertex 25.411 0.546 2.5
      vertex 25.411 0.546 -2.5
      vertex 26.552 1.207 2.5
    endloop
  endfacet
  facet normal 0.539126 -0.842225 0
    outer loop
      vertex 26.552 1.207 -2.5
      vertex 27.883 2.059 -2.5
      vertex 27.883 2.059 2.5
    endloop
  endfacet
  facet normal 0.539126 -0.842225 0
    outer loop
      vertex 26.552 1.207 2.5
      vertex 26.552 1.207 -2.5
      vertex 27.883 2.059 2.5
    endloop
  endfacet
  facet normal 0.555983 -0.831194 0
    outer loop
      vertex 27.883 2.059 -2.5
      vertex 29.079 2.859 -2.5
      vertex 29.079 2.859 2.5
    endloop
  endfacet
  facet normal 0.555983 -0.831194 0
    outer loop
      vertex 27.883 2.059 2.5
      vertex 27.883 2.059 -2.5
      vertex 29.079 2.859 2.5
    endloop
  endfacet
  facet normal 0.567027 -0.823699 0
    outer loop
      vertex 29.079 2.859 -2.5
      vertex 30.061 3.535 -2.5
      vertex 30.061 3.535 2.5
    endloop
  endfacet
  facet normal 0.567027 -0.823699 0
    outer loop
      vertex 29.079 2.859 2.5
      vertex 29.079 2.859 -2.5
      vertex 30.061 3.535 2.5
    endloop
  endfacet
  facet normal 0.585642 -0.81057 0
    outer loop
      vertex 30.061 3.535 -2.5
      vertex 30.843 4.1 -2.5
      vertex 30.843 4.1 2.5
    endloop
  endfacet
  facet normal 0.585642 -0.81057 0
    outer loop
      vertex 30.061 3.535 2.5
      vertex 30.061 3.535 -2.5
      vertex 30.843 4.1 2.5
    endloop
  endfacet
  facet normal 0.610028 -0.79238 0
    outer loop
      vertex 30.843 4.1 -2.5
      vertex 31.447 4.565 -2.5
      vertex 31.447 4.565 2.5
    endloop
  endfacet
  facet normal 0.610028 -0.79238 0
    outer loop
      vertex 30.843 4.1 2.5
      vertex 30.843 4.1 -2.5
      vertex 31.447 4.565 2.5
    endloop
  endfacet
  facet normal 0.659234 -0.751938 0
    outer loop
      vertex 31.447 4.565 -2.5
      vertex 31.885 4.949 -2.5
      vertex 31.885 4.949 2.5
    endloop
  endfacet
  facet normal 0.659234 -0.751938 0
    outer loop
      vertex 31.447 4.565 2.5
      vertex 31.447 4.565 -2.5
      vertex 31.885 4.949 2.5
    endloop
  endfacet
  facet normal 0.729025 -0.684487 0
    outer loop
      vertex 31.885 4.949 -2.5
      vertex 32.177 5.26 -2.5
      vertex 32.177 5.26 2.5
    endloop
  endfacet
  facet normal 0.729025 -0.684487 0
    outer loop
      vertex 31.885 4.949 2.5
      vertex 31.885 4.949 -2.5
      vertex 32.177 5.26 2.5
    endloop
  endfacet
  facet normal 0.83966 -0.543113 0
    outer loop
      vertex 32.177 5.26 -2.5
      vertex 32.34 5.512 -2.5
      vertex 32.34 5.512 2.5
    endloop
  endfacet
  facet normal 0.83966 -0.543113 0
    outer loop
      vertex 32.177 5.26 2.5
      vertex 32.177 5.26 -2.5
      vertex 32.34 5.512 2.5
    endloop
  endfacet
  facet normal 0.971231 -0.238138 0
    outer loop
      vertex 32.34 5.512 -2.5
      vertex 32.391 5.72 -2.5
      vertex 32.391 5.72 2.5
    endloop
  endfacet
  facet normal 0.971231 -0.238138 0
    outer loop
      vertex 32.34 5.512 2.5
      vertex 32.34 5.512 -2.5
      vertex 32.391 5.72 2.5
    endloop
  endfacet
  facet normal 0.89338 0.449302 0
    outer loop
      vertex 32.305 5.891 -2.5
      vertex 32.305 5.891 2.5
      vertex 32.391 5.72 2.5
    endloop
  endfacet
  facet normal 0.89338 0.449302 0
    outer loop
      vertex 32.391 5.72 -2.5
      vertex 32.305 5.891 -2.5
      vertex 32.391 5.72 2.5
    endloop
  endfacet
  facet normal 0.825135 0.564936 0
    outer loop
      vertex 32.064 6.243 -2.5
      vertex 32.064 6.243 2.5
      vertex 32.305 5.891 2.5
    endloop
  endfacet
  facet normal 0.825135 0.564936 0
    outer loop
      vertex 32.305 5.891 -2.5
      vertex 32.064 6.243 -2.5
      vertex 32.305 5.891 2.5
    endloop
  endfacet
  facet normal 0.799057 0.601255 0
    outer loop
      vertex 31.681 6.752 -2.5
      vertex 31.681 6.752 2.5
      vertex 32.064 6.243 2.5
    endloop
  endfacet
  facet normal 0.799057 0.601255 0
    outer loop
      vertex 32.064 6.243 -2.5
      vertex 31.681 6.752 -2.5
      vertex 32.064 6.243 2.5
    endloop
  endfacet
  facet normal 0.788172 0.615455 0
    outer loop
      vertex 31.175 7.4 -2.5
      vertex 31.175 7.4 2.5
      vertex 31.681 6.752 2.5
    endloop
  endfacet
  facet normal 0.788172 0.615455 0
    outer loop
      vertex 31.681 6.752 -2.5
      vertex 31.175 7.4 -2.5
      vertex 31.681 6.752 2.5
    endloop
  endfacet
  facet normal 0.780769 0.624819 0
    outer loop
      vertex 30.562 8.166 -2.5
      vertex 30.562 8.166 2.5
      vertex 31.175 7.4 2.5
    endloop
  endfacet
  facet normal 0.780769 0.624819 0
    outer loop
      vertex 31.175 7.4 -2.5
      vertex 30.562 8.166 -2.5
      vertex 31.175 7.4 2.5
    endloop
  endfacet
  facet normal 0.775316 0.631573 0
    outer loop
      vertex 29.859 9.029 -2.5
      vertex 29.859 9.029 2.5
      vertex 30.562 8.166 2.5
    endloop
  endfacet
  facet normal 0.775316 0.631573 0
    outer loop
      vertex 30.562 8.166 -2.5
      vertex 29.859 9.029 -2.5
      vertex 30.562 8.166 2.5
    endloop
  endfacet
  facet normal 0.770102 0.63792 0
    outer loop
      vertex 29.082 9.967 -2.5
      vertex 29.082 9.967 2.5
      vertex 29.859 9.029 2.5
    endloop
  endfacet
  facet normal 0.770102 0.63792 0
    outer loop
      vertex 29.859 9.029 -2.5
      vertex 29.082 9.967 -2.5
      vertex 29.859 9.029 2.5
    endloop
  endfacet
  facet normal 0.76651 0.642232 0
    outer loop
      vertex 28.25 10.96 -2.5
      vertex 28.25 10.96 2.5
      vertex 29.082 9.967 2.5
    endloop
  endfacet
  facet normal 0.76651 0.642232 0
    outer loop
      vertex 29.082 9.967 -2.5
      vertex 28.25 10.96 -2.5
      vertex 29.082 9.967 2.5
    endloop
  endfacet
  facet normal 0.765083 0.643932 0
    outer loop
      vertex 26.496 13.044 -2.5
      vertex 26.496 13.044 2.5
      vertex 28.25 10.96 2.5
    endloop
  endfacet
  facet normal 0.765083 0.643932 0
    outer loop
      vertex 28.25 10.96 -2.5
      vertex 26.496 13.044 -2.5
      vertex 28.25 10.96 2.5
    endloop
  endfacet
  facet normal 0.767205 0.641403 0
    outer loop
      vertex 24.788 15.087 -2.5
      vertex 24.788 15.087 2.5
      vertex 26.496 13.044 2.5
    endloop
  endfacet
  facet normal 0.767205 0.641403 0
    outer loop
      vertex 26.496 13.044 -2.5
      vertex 24.788 15.087 -2.5
      vertex 26.496 13.044 2.5
    endloop
  endfacet
  facet normal 0.768578 0.639756 0
    outer loop
      vertex 23.318 16.853 -2.5
      vertex 23.318 16.853 2.5
      vertex 24.788 15.087 2.5
    endloop
  endfacet
  facet normal 0.768578 0.639756 0
    outer loop
      vertex 24.788 15.087 -2.5
      vertex 23.318 16.853 -2.5
      vertex 24.788 15.087 2.5
    endloop
  endfacet
  facet normal 0.771524 0.636201 0
    outer loop
      vertex 22.279 18.113 -2.5
      vertex 22.279 18.113 2.5
      vertex 23.318 16.853 2.5
    endloop
  endfacet
  facet normal 0.771524 0.636201 0
    outer loop
      vertex 23.318 16.853 -2.5
      vertex 22.279 18.113 -2.5
      vertex 23.318 16.853 2.5
    endloop
  endfacet
  facet normal 0.777074 0.629409 0
    outer loop
      vertex 20.476 20.339 -2.5
      vertex 20.476 20.339 2.5
      vertex 22.279 18.113 2.5
    endloop
  endfacet
  facet normal 0.777074 0.629409 0
    outer loop
      vertex 22.279 18.113 -2.5
      vertex 20.476 20.339 -2.5
      vertex 22.279 18.113 2.5
    endloop
  endfacet
  facet normal 0.675844 -0.737045 0
    outer loop
      vertex 20.476 20.339 -2.5
      vertex 23.547 23.155 -2.5
      vertex 23.547 23.155 2.5
    endloop
  endfacet
  facet normal 0.675844 -0.737045 0
    outer loop
      vertex 20.476 20.339 2.5
      vertex 20.476 20.339 -2.5
      vertex 23.547 23.155 2.5
    endloop
  endfacet
  facet normal 0.683994 -0.729488 0
    outer loop
      vertex 23.547 23.155 -2.5
      vertex 24.926 24.448 -2.5
      vertex 24.926 24.448 2.5
    endloop
  endfacet
  facet normal 0.683994 -0.729488 0
    outer loop
      vertex 23.547 23.155 2.5
      vertex 23.547 23.155 -2.5
      vertex 24.926 24.448 2.5
    endloop
  endfacet
  facet normal 0.685243 -0.728315 0
    outer loop
      vertex 24.926 24.448 -2.5
      vertex 26.414 25.848 -2.5
      vertex 26.414 25.848 2.5
    endloop
  endfacet
  facet normal 0.685243 -0.728315 0
    outer loop
      vertex 24.926 24.448 2.5
      vertex 24.926 24.448 -2.5
      vertex 26.414 25.848 2.5
    endloop
  endfacet
  facet normal 0.686879 -0.726772 0
    outer loop
      vertex 26.414 25.848 -2.5
      vertex 27.835 27.191 -2.5
      vertex 27.835 27.191 2.5
    endloop
  endfacet
  facet normal 0.686879 -0.726772 0
    outer loop
      vertex 26.414 25.848 2.5
      vertex 26.414 25.848 -2.5
      vertex 27.835 27.191 2.5
    endloop
  endfacet
  facet normal 0.689009 -0.724753 0
    outer loop
      vertex 27.835 27.191 -2.5
      vertex 29.011 28.309 -2.5
      vertex 29.011 28.309 2.5
    endloop
  endfacet
  facet normal 0.689009 -0.724753 0
    outer loop
      vertex 27.835 27.191 2.5
      vertex 27.835 27.191 -2.5
      vertex 29.011 28.309 2.5
    endloop
  endfacet
  facet normal 0.698686 -0.715428 0
    outer loop
      vertex 29.011 28.309 -2.5
      vertex 31.404 30.646 -2.5
      vertex 31.404 30.646 2.5
    endloop
  endfacet
  facet normal 0.698686 -0.715428 0
    outer loop
      vertex 29.011 28.309 2.5
      vertex 29.011 28.309 -2.5
      vertex 31.404 30.646 2.5
    endloop
  endfacet
  facet normal 0.700315 0.713834 0
    outer loop
      vertex 28.447 33.547 2.5
      vertex 31.404 30.646 2.5
      vertex 28.447 33.547 -2.5
    endloop
  endfacet
  facet normal 0.700315 0.713834 0
    outer loop
      vertex 28.447 33.547 -2.5
      vertex 31.404 30.646 2.5
      vertex 31.404 30.646 -2.5
    endloop
  endfacet
  facet normal 0.692411 0.721504 0
    outer loop
      vertex 27.083 34.856 2.5
      vertex 28.447 33.547 2.5
      vertex 27.083 34.856 -2.5
    endloop
  endfacet
  facet normal 0.692411 0.721504 0
    outer loop
      vertex 27.083 34.856 -2.5
      vertex 28.447 33.547 2.5
      vertex 28.447 33.547 -2.5
    endloop
  endfacet
  facet normal 0.688248 0.725476 0
    outer loop
      vertex 25.563 36.298 2.5
      vertex 27.083 34.856 2.5
      vertex 25.563 36.298 -2.5
    endloop
  endfacet
  facet normal 0.688248 0.725476 0
    outer loop
      vertex 25.563 36.298 -2.5
      vertex 27.083 34.856 2.5
      vertex 27.083 34.856 -2.5
    endloop
  endfacet
  facet normal 0.685319 0.728243 0
    outer loop
      vertex 24.07 37.703 2.5
      vertex 25.563 36.298 2.5
      vertex 24.07 37.703 -2.5
    endloop
  endfacet
  facet normal 0.685319 0.728243 0
    outer loop
      vertex 24.07 37.703 -2.5
      vertex 25.563 36.298 2.5
      vertex 25.563 36.298 -2.5
    endloop
  endfacet
  facet normal 0.681587 0.731737 0
    outer loop
      vertex 22.786 38.899 2.5
      vertex 24.07 37.703 2.5
      vertex 22.786 38.899 -2.5
    endloop
  endfacet
  facet normal 0.681587 0.731737 0
    outer loop
      vertex 22.786 38.899 -2.5
      vertex 24.07 37.703 2.5
      vertex 24.07 37.703 -2.5
    endloop
  endfacet
  facet normal 0.671444 0.741055 0
    outer loop
      vertex 20.082 41.349 2.5
      vertex 22.786 38.899 2.5
      vertex 20.082 41.349 -2.5
    endloop
  endfacet
  facet normal 0.671444 0.741055 0
    outer loop
      vertex 20.082 41.349 -2.5
      vertex 22.786 38.899 2.5
      vertex 22.786 38.899 -2.5
    endloop
  endfacet
  facet normal 0 1 0
    outer loop
      vertex 0 41.349 2.5
      vertex 20.082 41.349 2.5
      vertex 0 41.349 -2.5
    endloop
  endfacet
  facet normal 0 1 0
    outer loop
      vertex 0 41.349 -2.5
      vertex 20.082 41.349 2.5
      vertex 20.082 41.349 -2.5
    endloop
  endfacet
  facet normal -1 0 0
    outer loop
      vertex 0 35.999 2.5
      vertex 0 41.349 2.5
      vertex 0 35.999 -2.5
    endloop
  endfacet
  facet normal -1 0 0
    outer loop
      vertex 0 35.999 -2.5
      vertex 0 41.349 2.5
      vertex 0 41.349 -2.5
    endloop
  endfacet
  facet normal -0.999998 -0.00192585 0
    outer loop
      vertex 0.004 33.922 -2.5
      vertex 0.004 33.922 2.5
      vertex 0 35.999 -2.5
    endloop
  endfacet
  facet normal -0.999998 -0.00192585 0
    outer loop
      vertex 0 35.999 -2.5
      vertex 0.004 33.922 2.5
      vertex 0 35.999 2.5
    endloop
  endfacet
  facet normal -0.999951 -0.00991783 0
    outer loop
      vertex 0.021 32.208 -2.5
      vertex 0.021 32.208 2.5
      vertex 0.004 33.922 -2.5
    endloop
  endfacet
  facet normal -0.999951 -0.00991783 0
    outer loop
      vertex 0.004 33.922 -2.5
      vertex 0.021 32.208 2.5
      vertex 0.004 33.922 2.5
    endloop
  endfacet
  facet normal -0.999754 -0.0221788 0
    outer loop
      vertex 0.047 31.036 -2.5
      vertex 0.047 31.036 2.5
      vertex 0.021 32.208 -2.5
    endloop
  endfacet
  facet normal -0.999754 -0.0221788 0
    outer loop
      vertex 0.021 32.208 -2.5
      vertex 0.047 31.036 2.5
      vertex 0.021 32.208 2.5
    endloop
  endfacet
  facet normal -0.996577 -0.0826756 0
    outer loop
      vertex 0.084 30.59 -2.5
      vertex 0.084 30.59 2.5
      vertex 0.047 31.036 -2.5
    endloop
  endfacet
  facet normal -0.996577 -0.0826756 0
    outer loop
      vertex 0.047 31.036 -2.5
      vertex 0.084 30.59 2.5
      vertex 0.047 31.036 2.5
    endloop
  endfacet
  facet normal -0.0500181 -0.998748 0
    outer loop
      vertex 0.084 30.59 -2.5
      vertex 0.703 30.559 -2.5
      vertex 0.703 30.559 2.5
    endloop
  endfacet
  facet normal -0.0500181 -0.998748 0
    outer loop
      vertex 0.084 30.59 2.5
      vertex 0.084 30.59 -2.5
      vertex 0.703 30.559 2.5
    endloop
  endfacet
  facet normal -0.658595 0.752498 0
    outer loop
      vertex 7.661 23.52 2.5
      vertex 15.322 30.225 2.5
      vertex 7.661 23.52 -2.5
    endloop
  endfacet
  facet normal -0.658595 0.752498 0
    outer loop
      vertex 7.661 23.52 -2.5
      vertex 15.322 30.225 2.5
      vertex 15.322 30.225 -2.5
    endloop
  endfacet
  facet normal -0.658428 0.752644 0
    outer loop
      vertex 0 16.818 2.5
      vertex 7.661 23.52 2.5
      vertex 0 16.818 -2.5
    endloop
  endfacet
  facet normal -0.658428 0.752644 0
    outer loop
      vertex 0 16.818 -2.5
      vertex 7.661 23.52 2.5
      vertex 7.661 23.52 -2.5
    endloop
  endfacet
endsolid OpenSCAD_Model
